<svg xmlns="http://www.w3.org/2000/svg" width="375" height="70" viewBox="0 0 375 70">
  <g id="グループ_171" data-name="グループ 171" transform="translate(-1566 119)">
    <rect id="長方形_2477" data-name="長方形 2477" width="375" height="70" transform="translate(1566 -119)" fill="#fff"/>
    <g id="グループ_159" data-name="グループ 159" transform="translate(1039.26 -640.58)">
      <g id="グループ_34" data-name="グループ 34" transform="translate(650.797 542.58)">
        <g id="グループ_33" data-name="グループ 33">
          <path id="パス_38" data-name="パス 38" d="M647.488,546.343c0-.153.1-.22.269-.22s.267.067.267.22v.608h1.568a.212.212,0,0,1,.214.238.23.23,0,0,1-.214.254h-1.354a4.626,4.626,0,0,0,1.051.939.263.263,0,0,1,.117.212.25.25,0,0,1-.064.169.3.3,0,0,1-.212.11.277.277,0,0,1-.179-.069,4.224,4.224,0,0,1-.989-1.116,4.764,4.764,0,0,1,.063.788v1.785c0,.135-.108.211-.276.211s-.267-.076-.267-.211v-1.735a4.474,4.474,0,0,1,.07-.787,4.649,4.649,0,0,1-1.569,1.862.255.255,0,0,1-.169.059.272.272,0,0,1-.232-.125.333.333,0,0,1-.044-.153.292.292,0,0,1,.133-.229,5.132,5.132,0,0,0,1.615-1.708h-1.472c-.143,0-.213-.118-.213-.254s.07-.238.213-.238h1.674Zm.546-.9a5.586,5.586,0,0,0,.542-1.219.227.227,0,0,1,.233-.169.452.452,0,0,1,.1.016c.116.025.2.094.2.2a.367.367,0,0,1-.019.083,6.852,6.852,0,0,1-.524,1.092h1.051a.256.256,0,0,1,0,.507h-3.8c-.136,0-.213-.11-.213-.254s.077-.253.213-.253Zm-.536-2.632c0-.126.125-.212.3-.212s.294.085.294.212v.617h1.426a.225.225,0,0,1,.231.246.231.231,0,0,1-.231.254h-3.53a.23.23,0,0,1-.222-.254.224.224,0,0,1,.222-.246H647.5Zm-.811,1.252a.249.249,0,0,1,.224.118,4.21,4.21,0,0,1,.348.838.131.131,0,0,1,.009.06.213.213,0,0,1-.178.212.685.685,0,0,1-.116.015.191.191,0,0,1-.206-.152,4.182,4.182,0,0,0-.32-.795.14.14,0,0,1-.028-.084.219.219,0,0,1,.16-.2A.722.722,0,0,1,646.686,544.057Zm4.092,1.862a10.31,10.31,0,0,1-.277,2.622,5.369,5.369,0,0,1-.783,1.762.293.293,0,0,1-.249.124.321.321,0,0,1-.19-.06.256.256,0,0,1-.123-.2.325.325,0,0,1,.071-.189,4.687,4.687,0,0,0,.74-1.614,12.707,12.707,0,0,0,.24-3.139v-1.1a.612.612,0,0,1,.571-.711,12.365,12.365,0,0,0,2.379-.6.361.361,0,0,1,.152-.033.269.269,0,0,1,.248.152.32.32,0,0,1,.035.152.213.213,0,0,1-.142.22,14.779,14.779,0,0,1-2.416.591c-.2.035-.256.111-.256.373v1.141h2.87a.231.231,0,0,1,.231.247.235.235,0,0,1-.231.261h-.856v4.307c0,.142-.107.228-.3.228-.17,0-.284-.087-.284-.228v-4.307Z" transform="translate(-645.538 -542.578)" fill="#3b3938"/>
          <path id="パス_39" data-name="パス 39" d="M656.174,547.632a.368.368,0,0,1-.016.1,11.671,11.671,0,0,1-1.239,2.445.315.315,0,0,1-.248.118.4.4,0,0,1-.19-.049.271.271,0,0,1-.14-.229.257.257,0,0,1,.054-.152,10.366,10.366,0,0,0,1.211-2.336.254.254,0,0,1,.249-.159.577.577,0,0,1,.116.018A.254.254,0,0,1,656.174,547.632Zm-.069-1.785a.255.255,0,0,1,.1.2.3.3,0,0,1-.071.179.328.328,0,0,1-.241.118.258.258,0,0,1-.2-.085,8.228,8.228,0,0,0-1.22-.914.206.206,0,0,1-.109-.186.255.255,0,0,1,.073-.186.282.282,0,0,1,.221-.11.368.368,0,0,1,.152.043A10.029,10.029,0,0,1,656.105,545.847Zm.383-2.089a.3.3,0,0,1,.089.2.29.29,0,0,1-.081.187.31.31,0,0,1-.222.1.344.344,0,0,1-.222-.1,9.155,9.155,0,0,0-1.15-.922.211.211,0,0,1-.108-.187.254.254,0,0,1,.073-.177.317.317,0,0,1,.239-.109.416.416,0,0,1,.163.041A9.169,9.169,0,0,1,656.488,543.758Zm2.192,2.436a5.111,5.111,0,0,1-.481.738h3.413c.526,0,.759.193.747.633a8.306,8.306,0,0,1-.32,2.156c-.17.492-.427.66-1.007.66a4.326,4.326,0,0,1-.856-.085.233.233,0,0,1-.2-.244.314.314,0,0,1,.008-.087.255.255,0,0,1,.241-.2.112.112,0,0,1,.047.008,3.065,3.065,0,0,0,.721.1.5.5,0,0,0,.551-.4,7.53,7.53,0,0,0,.258-1.811v-.035c0-.169-.07-.229-.3-.229H657.77a4.88,4.88,0,0,1-1.041.771.378.378,0,0,1-.163.041.3.3,0,0,1-.224-.116.277.277,0,0,1-.035-.137.251.251,0,0,1,.136-.219,3.837,3.837,0,0,0,1.658-1.549h-.428c-.481,0-.712-.186-.712-.652v-1.777c0-.38.132-.523.585-.633a4.972,4.972,0,0,0,1.223-.432.29.29,0,0,1,.142-.033.277.277,0,0,1,.241.133.21.21,0,0,1,.042.129.244.244,0,0,1-.177.219,5.936,5.936,0,0,1-1.248.424c-.167.034-.268.117-.268.3v.458h1.391c.115,0,.188.094.188.228s-.074.229-.188.229H657.5v.726c0,.179.09.22.268.22h3.324c.179,0,.269-.041.269-.22v-.726h-1.516c-.116,0-.186-.094-.186-.229s.07-.228.186-.228h1.516v-.685c0-.178-.09-.221-.269-.221h-1.328c-.124,0-.194-.1-.194-.236,0-.151.07-.236.194-.236h1.417c.489,0,.721.186.721.651v1.946c0,.466-.232.652-.721.652Zm-1.043,2.09a.214.214,0,0,1-.009.076,6.582,6.582,0,0,1-.658,1.615.278.278,0,0,1-.24.145.3.3,0,0,1-.144-.036.239.239,0,0,1-.16-.219.268.268,0,0,1,.054-.152,5.491,5.491,0,0,0,.642-1.463.225.225,0,0,1,.233-.194.436.436,0,0,1,.1.016A.212.212,0,0,1,657.637,548.284Zm.767-.313a.218.218,0,0,1,.222.169,7.656,7.656,0,0,1,.224,1.48.247.247,0,0,1-.232.255h-.036c-.152,0-.276-.084-.276-.22a6.945,6.945,0,0,0-.176-1.413.141.141,0,0,1-.011-.061c0-.109.08-.176.2-.2A.271.271,0,0,1,658.4,547.972Zm1.088-.145a.223.223,0,0,1,.2.12,8.738,8.738,0,0,1,.454,1.177.21.21,0,0,1,.009.075.258.258,0,0,1-.187.228.422.422,0,0,1-.1.016.224.224,0,0,1-.224-.169,7.812,7.812,0,0,0-.4-1.167.334.334,0,0,1-.016-.067.206.206,0,0,1,.169-.194A.336.336,0,0,1,659.491,547.826Zm1.008-.186a.252.252,0,0,1,.2.1,4.9,4.9,0,0,1,.5.9.283.283,0,0,1,.027.109.206.206,0,0,1-.135.194.278.278,0,0,1-.125.026.2.2,0,0,1-.2-.12,5.314,5.314,0,0,0-.461-.878.187.187,0,0,1-.046-.118.207.207,0,0,1,.133-.186A.249.249,0,0,1,660.5,547.64Z" transform="translate(-644.035 -542.565)" fill="#3b3938"/>
          <path id="パス_40" data-name="パス 40" d="M665.672,548.688a.239.239,0,0,1-.06.152,5.79,5.79,0,0,1-1.784,1.4.432.432,0,0,1-.17.042.326.326,0,0,1-.258-.136.4.4,0,0,1-.043-.16.245.245,0,0,1,.141-.22,4.772,4.772,0,0,0,1.65-1.26.263.263,0,0,1,.2-.1.3.3,0,0,1,.179.061A.239.239,0,0,1,665.672,548.688Zm1.756,1.556c0,.136-.132.228-.3.228s-.3-.092-.3-.228v-2.216h-2.549c-.48,0-.712-.178-.712-.653v-3.687c0-.144.116-.228.294-.228s.3.084.3.228v3.6c0,.185.1.245.285.245h6.433a.218.218,0,0,1,.221.245.223.223,0,0,1-.221.246h-3.458Zm1.953-7.411c.479,0,.7.193.7.651v2.836c0,.447-.224.626-.7.626h-3.413c-.482,0-.714-.179-.714-.626v-2.836c0-.458.232-.651.714-.651Zm.15.7c0-.17-.088-.239-.258-.239h-3.2c-.17,0-.259.069-.259.239v.523h3.715Zm0,.972h-3.715v.743h3.715Zm-3.715,1.2v.558c0,.152.089.219.259.219h3.2c.17,0,.258-.067.258-.219v-.558Zm5.1,4.011a.261.261,0,0,1,.16.245.365.365,0,0,1-.044.162.274.274,0,0,1-.239.136.325.325,0,0,1-.152-.035,6.839,6.839,0,0,1-1.916-1.371.276.276,0,0,1-.08-.178.27.27,0,0,1,.124-.21.307.307,0,0,1,.187-.061.245.245,0,0,1,.2.084A5.805,5.805,0,0,0,670.92,549.72Z" transform="translate(-642.496 -542.537)" fill="#3b3938"/>
          <path id="パス_41" data-name="パス 41" d="M682.018,545.124a7.525,7.525,0,0,1-.625,1.758,5.721,5.721,0,0,1-.989,1.4,23.589,23.589,0,0,1,2.666,1.455.3.3,0,0,1,.142.246.326.326,0,0,1-.062.186.341.341,0,0,1-.266.143.26.26,0,0,1-.163-.049,21.753,21.753,0,0,0-2.762-1.566,7.9,7.9,0,0,1-3.973,1.643.239.239,0,0,1-.081.009.263.263,0,0,1-.275-.256.173.173,0,0,1-.019-.091c0-.144.1-.229.267-.263a7.687,7.687,0,0,0,3.51-1.311,22.642,22.642,0,0,0-2.166-.862.492.492,0,0,1-.364-.466.612.612,0,0,1,.125-.355,10.336,10.336,0,0,0,1.024-1.616h-2.192a.249.249,0,0,1-.241-.272.243.243,0,0,1,.241-.271h2.45a15.254,15.254,0,0,0,.667-1.717.26.26,0,0,1,.268-.213.372.372,0,0,1,.108.01c.152.034.249.117.249.235a.382.382,0,0,1-.019.1c-.177.526-.391,1.058-.622,1.583h4.525c.151,0,.231.117.231.271a.242.242,0,0,1-.231.272Zm-3.361,0a11.586,11.586,0,0,1-1.033,1.693.318.318,0,0,0-.078.184c0,.076.053.128.15.163.713.252,1.442.541,2.157.86a5.472,5.472,0,0,0,1.291-2.063,6.932,6.932,0,0,0,.241-.837Z" transform="translate(-640.41 -542.568)" fill="#3b3938"/>
          <path id="パス_42" data-name="パス 42" d="M685.121,544.535v.018a9.733,9.733,0,0,1-.373,2,.24.24,0,0,1-.241.178.451.451,0,0,1-.108-.018.2.2,0,0,1-.158-.2.452.452,0,0,1,.016-.11,8.283,8.283,0,0,0,.365-1.9.208.208,0,0,1,.224-.187h.036C685.022,544.324,685.121,544.384,685.121,544.535Zm.9,5.72c0,.135-.117.211-.286.211s-.287-.076-.287-.211v-7.42c0-.135.128-.212.287-.212s.286.077.286.212Zm.569-6.084a.171.171,0,0,1,.178.136,7.51,7.51,0,0,1,.3.989.134.134,0,0,1,.007.052.2.2,0,0,1-.176.2.253.253,0,0,1-.083.009.2.2,0,0,1-.212-.171c-.063-.269-.171-.658-.268-.946a.222.222,0,0,1-.018-.068.193.193,0,0,1,.15-.186A.678.678,0,0,1,686.592,544.171Zm2.8.879h-1.373a8.038,8.038,0,0,1-.685,1.4.265.265,0,0,1-.232.16.359.359,0,0,1-.172-.052.232.232,0,0,1-.14-.2.321.321,0,0,1,.053-.171,6.5,6.5,0,0,0,1.043-2.834c.016-.124.115-.194.266-.194h.044c.163.016.251.1.251.228a.1.1,0,0,1-.009.052,6.9,6.9,0,0,1-.241,1.109h1.2v-1.7c0-.142.115-.211.294-.211s.293.069.293.211v1.7h2.058a.223.223,0,0,1,.232.254.226.226,0,0,1-.232.252h-2.058v1.785h1.906c.145,0,.214.1.214.246s-.069.254-.214.254h-1.906V549.6h2.3c.144,0,.225.1.225.261a.234.234,0,0,1-.225.263h-5.328c-.142,0-.212-.118-.212-.263,0-.16.07-.261.212-.261h2.443v-2.269h-1.729a.24.24,0,0,1-.24-.262.216.216,0,0,1,.221-.238h1.748Z" transform="translate(-638.93 -542.573)" fill="#3b3938"/>
          <path id="パス_43" data-name="パス 43" d="M696.678,547.243a3.335,3.335,0,0,1-.857,1.539,1.412,1.412,0,0,1-1,.4c-.9,0-1.62-.863-1.62-2.208,0-2.116,1.539-3.6,3.937-3.6a3.114,3.114,0,0,1,3.437,3.113,2.906,2.906,0,0,1-1.326,2.53,4.879,4.879,0,0,1-2,.694.4.4,0,0,1-.082.006.291.291,0,0,1-.328-.244.189.189,0,0,1-.011-.076c0-.151.107-.263.294-.3a4.021,4.021,0,0,0,1.926-.7,2.369,2.369,0,0,0,.882-1.921,2.512,2.512,0,0,0-2.674-2.572A13.137,13.137,0,0,1,696.678,547.243Zm-2.852-.279c0,1.03.473,1.589.971,1.589a.872.872,0,0,0,.625-.254,3.013,3.013,0,0,0,.659-1.243,12.18,12.18,0,0,0,.544-3.138A2.91,2.91,0,0,0,693.826,546.964Z" transform="translate(-637.4 -542.445)" fill="#3b3938"/>
          <path id="パス_44" data-name="パス 44" d="M701.984,544.862h-.2a.251.251,0,0,1-.286-.27v-.027a.257.257,0,0,1,.294-.261c.5,0,1.105-.018,1.7-.053.109-.412.2-.818.267-1.225a.276.276,0,0,1,.3-.238h.062c.172.025.269.119.269.262a.151.151,0,0,1-.01.068c-.062.337-.142.7-.232,1.092.633-.052,1.258-.127,1.755-.213a.4.4,0,0,1,.082-.007.266.266,0,0,1,.283.227v.052a.269.269,0,0,1-.236.28c-.573.092-1.295.166-2.042.227a28.42,28.42,0,0,1-1.767,4.866.337.337,0,0,1-.293.194.4.4,0,0,1-.17-.042.279.279,0,0,1-.169-.262.367.367,0,0,1,.053-.178,24.978,24.978,0,0,0,1.712-4.534C702.886,544.835,702.4,544.862,701.984,544.862Zm3.368,2.725a.233.233,0,0,1-.089.185.977.977,0,0,0-.367.745.616.616,0,0,0,.375.6,3.128,3.128,0,0,0,1.319.2,11.229,11.229,0,0,0,1.995-.178.568.568,0,0,1,.108-.008.265.265,0,0,1,.284.22.168.168,0,0,1,.009.067.323.323,0,0,1-.294.323,10.135,10.135,0,0,1-2.05.178,3.748,3.748,0,0,1-1.7-.306,1.087,1.087,0,0,1-.632-1.067,1.553,1.553,0,0,1,.551-1.125.338.338,0,0,1,.214-.084.312.312,0,0,1,.169.059A.226.226,0,0,1,705.352,547.588Zm2.965-2.353a.292.292,0,1,1-.007.583h-.018c-.233-.016-.554-.016-.8-.016a12.73,12.73,0,0,0-2.119.186.289.289,0,0,1-.083.008.28.28,0,0,1-.294-.238.216.216,0,0,1-.006-.067.277.277,0,0,1,.247-.272,13.362,13.362,0,0,1,2.3-.212C707.768,545.208,708.043,545.218,708.318,545.235Z" transform="translate(-635.982 -542.544)" fill="#3b3938"/>
          <path id="パス_45" data-name="パス 45" d="M714.069,544.212c.081-.366.143-.728.187-1.068a.257.257,0,0,1,.286-.253.2.2,0,0,1,.063.007.263.263,0,0,1,.259.272.166.166,0,0,1-.011.069c-.044.32-.107.658-.178,1.022a3.185,3.185,0,0,1,1.275.432,2.486,2.486,0,0,1,1.247,2.243c0,1.648-1.309,2.74-3.375,2.976h-.071a.292.292,0,0,1-.323-.228.194.194,0,0,1-.007-.058.271.271,0,0,1,.286-.28c1.709-.2,2.85-1.084,2.85-2.4a2.09,2.09,0,0,0-.944-1.8,2.755,2.755,0,0,0-1.062-.375,10.911,10.911,0,0,1-.355,1.2,9.831,9.831,0,0,1-1.042,2.023c.078.126.169.243.249.371a.385.385,0,0,1,.07.2.262.262,0,0,1-.1.212.418.418,0,0,1-.191.059.3.3,0,0,1-.22-.092c-.063-.086-.125-.178-.187-.272a2.07,2.07,0,0,1-1.613.837c-.776,0-1.348-.6-1.348-1.648a3.289,3.289,0,0,1,1.524-2.649c-.114-.481-.221-.981-.3-1.487v-.061a.27.27,0,0,1,.239-.279.314.314,0,0,1,.081-.007.25.25,0,0,1,.266.244c.056.432.136.863.225,1.285a4.674,4.674,0,0,1,2.147-.5Zm-2.584,1.351a2.653,2.653,0,0,0-1.076,2.057c0,.694.328,1.126.773,1.126a1.681,1.681,0,0,0,1.275-.763A11.12,11.12,0,0,1,711.485,545.563Zm2.158.228c.115-.329.221-.693.31-1.065a4.088,4.088,0,0,0-1.968.5,10.853,10.853,0,0,0,.838,2.268A8.759,8.759,0,0,0,713.643,545.791Z" transform="translate(-634.564 -542.527)" fill="#3b3938"/>
          <path id="パス_46" data-name="パス 46" d="M721.686,547.243a3.356,3.356,0,0,1-.855,1.539,1.42,1.42,0,0,1-1,.4c-.9,0-1.62-.863-1.62-2.208,0-2.116,1.541-3.6,3.937-3.6a3.117,3.117,0,0,1,3.441,3.113,2.909,2.909,0,0,1-1.328,2.53,4.873,4.873,0,0,1-2.005.694.371.371,0,0,1-.08.006.3.3,0,0,1-.331-.244.28.28,0,0,1-.007-.076c0-.151.107-.263.294-.3a4.017,4.017,0,0,0,1.924-.7,2.37,2.37,0,0,0,.883-1.921,2.512,2.512,0,0,0-2.673-2.572A13.239,13.239,0,0,1,721.686,547.243Zm-2.851-.279c0,1.03.471,1.589.971,1.589a.87.87,0,0,0,.623-.254,3,3,0,0,0,.66-1.243,12.031,12.031,0,0,0,.543-3.138A2.909,2.909,0,0,0,718.835,546.964Z" transform="translate(-633.13 -542.445)" fill="#3b3938"/>
          <path id="パス_47" data-name="パス 47" d="M727.986,542.821c0-.143.108-.22.276-.22s.294.077.294.22V544.3h1.034c.144,0,.214.109.214.246s-.07.254-.214.254h-1a6.565,6.565,0,0,0,1.167,1.836.28.28,0,0,1,.07.177.276.276,0,0,1-.078.194.333.333,0,0,1-.19.068.286.286,0,0,1-.221-.119,5.167,5.167,0,0,1-.872-1.615,9.506,9.506,0,0,1,.088,1.295v3.636c0,.145-.115.221-.283.221s-.287-.076-.287-.221v-3.248c0-.407.045-1.05.1-1.531a7.993,7.993,0,0,1-1.255,2.69.288.288,0,0,1-.241.136.294.294,0,0,1-.169-.068.271.271,0,0,1-.1-.211.288.288,0,0,1,.063-.178,8.208,8.208,0,0,0,1.505-3.063H726.8c-.142,0-.213-.111-.213-.254s.071-.246.213-.246h1.186Zm2.093.779c0-.489.233-.677.714-.677h2.824c.474,0,.679.187.679.677v5.9c0,.492-.2.678-.679.678h-2.824c-.481,0-.714-.186-.714-.678Zm3.639.068c0-.169-.092-.228-.252-.228h-2.538c-.17,0-.26.06-.26.228v1.413h3.05Zm-3.05,1.913v1.666h3.05v-1.666Zm0,2.165v1.692c0,.171.09.229.26.229h2.538c.159,0,.252-.059.252-.229v-1.692Z" transform="translate(-631.745 -542.576)" fill="#3b3938"/>
          <path id="パス_48" data-name="パス 48" d="M735.337,544.561c-.144,0-.214-.118-.214-.254,0-.151.07-.245.214-.245h2.743c.142,0,.215.094.215.245a.225.225,0,0,1-.215.254Zm.32,1.212c-.141,0-.2-.111-.2-.239s.063-.238.2-.238h2.175c.124,0,.2.1.2.238a.217.217,0,0,1-.2.239Zm0,1.216c-.141,0-.2-.109-.2-.236s.063-.238.2-.238h2.175c.124,0,.2.1.2.238a.21.21,0,0,1-.2.236Zm.036-3.663a.222.222,0,0,1-.214-.246.215.215,0,0,1,.214-.238h2.146c.125,0,.2.1.2.238s-.071.246-.2.246Zm1.657,4.366c.445,0,.652.17.652.591v1.345c0,.425-.207.594-.652.594H736.14c-.447,0-.661-.169-.661-.594v-1.345c0-.421.214-.591.661-.591Zm-.135,2.065c.163,0,.252-.052.252-.212v-1.193c0-.163-.089-.212-.252-.212h-.935c-.159,0-.249.049-.249.212v1.193c0,.16.09.212.249.212Zm1.338.643a.325.325,0,0,1-.151.033.289.289,0,0,1-.249-.152.275.275,0,0,1-.036-.144.241.241,0,0,1,.169-.219,3.191,3.191,0,0,0,1.927-1.846,4.082,4.082,0,0,0,.285-1.775c0-.136.105-.221.284-.221.159,0,.286.085.286.221a3.626,3.626,0,0,0,.275,1.733,3.693,3.693,0,0,0,1.98,1.82.281.281,0,0,1,.176.262.262.262,0,0,1-.042.152.293.293,0,0,1-.26.152.364.364,0,0,1-.178-.053,4.028,4.028,0,0,1-2.236-2.46A3.551,3.551,0,0,1,738.553,550.4Zm.153-3.867a.379.379,0,0,1-.136.025.289.289,0,0,1-.249-.16.319.319,0,0,1-.026-.118.264.264,0,0,1,.185-.246,2.961,2.961,0,0,0,1.732-1.446,3.649,3.649,0,0,0,.293-1.744c0-.135.108-.219.276-.219s.286.084.286.219a2.908,2.908,0,0,0,2.12,3.166.262.262,0,0,1,.158.245.314.314,0,0,1-.023.126.273.273,0,0,1-.252.171.289.289,0,0,1-.142-.035,3.587,3.587,0,0,1-2.13-2.19A3.265,3.265,0,0,1,738.707,546.532Zm.845.457a.155.155,0,0,1-.009.06,4.019,4.019,0,0,1-.616,1.3.284.284,0,0,1-.231.144.322.322,0,0,1-.178-.06.223.223,0,0,1-.125-.2.309.309,0,0,1,.054-.162,3.89,3.89,0,0,0,.553-1.149.23.23,0,0,1,.247-.17.38.38,0,0,1,.091.008A.24.24,0,0,1,739.552,546.989Zm.105-3.639a.175.175,0,0,1-.008.06,4.009,4.009,0,0,1-.605,1.3.3.3,0,0,1-.249.145.35.35,0,0,1-.151-.043.232.232,0,0,1-.152-.21.256.256,0,0,1,.043-.128,3.363,3.363,0,0,0,.554-1.177.24.24,0,0,1,.259-.178.292.292,0,0,1,.089.009C739.579,543.156,739.657,543.239,739.657,543.35Zm3.485-.007a.2.2,0,0,1-.028.093,4.8,4.8,0,0,1-.845,1.151.275.275,0,0,1-.41.018.223.223,0,0,1-.089-.178.257.257,0,0,1,.089-.186,4.424,4.424,0,0,0,.732-1.014.243.243,0,0,1,.22-.146.368.368,0,0,1,.152.034A.265.265,0,0,1,743.143,543.343Zm-.038,3.73a.213.213,0,0,1-.025.1,4.594,4.594,0,0,1-.766,1.068.285.285,0,0,1-.411.025.255.255,0,0,1-.107-.186.222.222,0,0,1,.07-.16,4.288,4.288,0,0,0,.694-.98.24.24,0,0,1,.222-.146.337.337,0,0,1,.144.034A.288.288,0,0,1,743.105,547.073Z" transform="translate(-630.242 -542.573)" fill="#3b3938"/>
          <path id="パス_49" data-name="パス 49" d="M745.545,548.114a.284.284,0,0,1-.016.082,5.5,5.5,0,0,1-.962,1.744.279.279,0,0,1-.213.1.369.369,0,0,1-.222-.082.227.227,0,0,1-.1-.187.253.253,0,0,1,.082-.186,4.627,4.627,0,0,0,.89-1.565.234.234,0,0,1,.241-.171.352.352,0,0,1,.115.026A.248.248,0,0,1,745.545,548.114Zm2.085-5.313c0-.145.108-.221.287-.221.2,0,.286.076.286.221v.556h2.985c.5,0,.732.186.732.618v.795c0,.153-.11.229-.3.229s-.276-.076-.276-.229v-.711c0-.17-.1-.22-.285-.22h-2.094v.871c0,.238.062.272.721.272.543,0,.686-.042.768-.118a.739.739,0,0,0,.1-.348.221.221,0,0,1,.248-.169h.028a.251.251,0,0,1,.252.238v.015a1.027,1.027,0,0,1-.208.584c-.151.178-.444.247-1.185.247-1.024,0-1.247-.1-1.247-.534V543.84h-1.06a1.958,1.958,0,0,1-.143.441,2.12,2.12,0,0,1-.606.786,4.263,4.263,0,0,1-1.871.821.22.22,0,0,1-.073.009.251.251,0,0,1-.256-.221.126.126,0,0,1-.009-.06.226.226,0,0,1,.2-.235c1.221-.245,1.961-.67,2.175-1.541h-1.81c-.187,0-.275.05-.275.22v.7c0,.144-.116.228-.294.228s-.294-.084-.294-.228v-.787c0-.432.239-.618.729-.618h2.77Zm1.4,3.23a.169.169,0,0,1-.081-.144.245.245,0,0,1,.081-.16.3.3,0,0,1,.213-.085.294.294,0,0,1,.163.052,10.1,10.1,0,0,1,1.835,1.465.263.263,0,0,1,.089.185.315.315,0,0,1-.293.288.269.269,0,0,1-.214-.1,5.537,5.537,0,0,0-.465-.482c-2.014.192-3.734.261-5.649.288h-.019a.231.231,0,0,1-.238-.255v-.025a.216.216,0,0,1,.22-.238H746a9.528,9.528,0,0,0,1.213-1.6.248.248,0,0,1,.232-.143.368.368,0,0,1,.151.033.238.238,0,0,1,.186.22.174.174,0,0,1-.044.126,9.17,9.17,0,0,1-1.068,1.355c1.077-.026,2.147-.076,3.215-.178A8.79,8.79,0,0,0,749.03,546.031Zm-2.789,1.879c0-.152.107-.228.286-.228s.294.084.294.228v1.557c0,.236.162.277,1.034.287.142.009.276.009.41.009a4.6,4.6,0,0,0,1.024-.085c.376-.1.419-.3.445-.779a.225.225,0,0,1,.241-.2.289.289,0,0,1,.073.007c.16.027.266.1.266.228v.036c-.1.725-.2,1.056-.873,1.191a5.881,5.881,0,0,1-1.229.1c-.194,0-.4-.009-.624-.018-1.123-.027-1.345-.194-1.345-.633Zm1.658-.357a.311.311,0,0,1,.17.052,7.284,7.284,0,0,1,.865.931.246.246,0,0,1-.09.338.318.318,0,0,1-.187.059.229.229,0,0,1-.2-.092,6.022,6.022,0,0,0-.784-.905.2.2,0,0,1-.07-.144.229.229,0,0,1,.105-.178A.349.349,0,0,1,747.9,547.553Zm2.6.2a.271.271,0,0,1,.2.092,9.515,9.515,0,0,1,1.275,1.685.23.23,0,0,1,.036.126.279.279,0,0,1-.162.238.3.3,0,0,1-.16.05.238.238,0,0,1-.222-.135,8.335,8.335,0,0,0-1.186-1.633.261.261,0,0,1-.078-.178.216.216,0,0,1,.105-.178A.3.3,0,0,1,750.5,547.749Z" transform="translate(-628.721 -542.58)" fill="#3b3938"/>
          <path id="パス_50" data-name="パス 50" d="M759.979,548.842c0,.5-.275.754-.81.754h-5.2c-.528,0-.811-.255-.811-.754V544.02c0-.507.283-.762.811-.762h5.2c.535,0,.81.255.81.762Zm-1.033.2c.31,0,.41-.084.41-.329v-4.579c0-.245-.1-.329-.41-.329H754.2c-.321,0-.418.084-.418.329v4.579c0,.245.1.329.418.329Z" transform="translate(-627.164 -542.464)" fill="#3b3938"/>
        </g>
      </g>
      <g id="グループ_40" data-name="グループ 40" transform="translate(614.74 555.696)">
        <g id="グループ_36" data-name="グループ 36">
          <g id="グループ_35" data-name="グループ 35">
            <path id="パス_51" data-name="パス 51" d="M627.649,568.749a.821.821,0,0,1-.613-.272l-10.641-11.729v10.827a.827.827,0,1,1-1.654,0V554.607a.827.827,0,0,1,1.439-.554l10.642,11.725v-8.216a.828.828,0,0,1,1.655,0v10.359a.832.832,0,0,1-.532.773A.817.817,0,0,1,627.649,568.749Z" transform="translate(-614.74 -553.783)" fill="#88c7b2"/>
          </g>
          <path id="パス_52" data-name="パス 52" d="M637.7,568.876c-.1,0-.2,0-.309-.009-4.382-.248-8.785-5.814-8.969-6.049a.743.743,0,0,1,.583-1.2h5.211a4.906,4.906,0,0,0,3.052-1.369,3,3,0,0,0,.828-2.3,2.4,2.4,0,0,0-.889-1.639,4.775,4.775,0,0,0-3.482-1.022,13.217,13.217,0,0,0-4.535,1.62.74.74,0,1,1-.753-1.274,14.408,14.408,0,0,1,5.159-1.822,6.234,6.234,0,0,1,4.582,1.377,3.845,3.845,0,0,1,1.393,2.682,4.467,4.467,0,0,1-1.233,3.4,6.368,6.368,0,0,1-4.123,1.832h-3.58c1.47,1.571,4.258,4.142,6.841,4.288a3.429,3.429,0,0,0,2.763-1.115.74.74,0,1,1,1.054,1.04A4.891,4.891,0,0,1,637.7,568.876Z" transform="translate(-612.463 -553.783)" fill="#e14869"/>
        </g>
        <g id="グループ_39" data-name="グループ 39" transform="translate(35.599 0.157)">
          <g id="グループ_37" data-name="グループ 37">
            <path id="パス_53" data-name="パス 53" d="M656.31,563.205a.629.629,0,0,0-.214.037,9.1,9.1,0,0,1-2.96.5,6.3,6.3,0,0,1-4.155-1.366.66.66,0,0,0-.906.008.707.707,0,0,0-.2.5.644.644,0,0,0,.2.462,7.091,7.091,0,0,0,4.948,1.737,10.9,10.9,0,0,0,3.441-.565.681.681,0,0,0,.444-.868A.611.611,0,0,0,656.31,563.205Z" transform="translate(-644.682 -552.502)" fill="#3b3938"/>
            <path id="パス_54" data-name="パス 54" d="M649,557.952a18.563,18.563,0,0,0,2.96.226,19.537,19.537,0,0,0,3.465-.3.712.712,0,0,0,.56-.807.63.63,0,0,0-.747-.52,16.039,16.039,0,0,1-3.136.275,20.374,20.374,0,0,1-2.93-.206.632.632,0,0,0-.718.55A.672.672,0,0,0,649,557.952Z" transform="translate(-644.586 -553.468)" fill="#3b3938"/>
            <path id="パス_55" data-name="パス 55" d="M646.8,555.1a.72.72,0,0,0-.875.46,20.689,20.689,0,0,0-.052,11.06.647.647,0,0,0,.63.464.769.769,0,0,0,.229-.036.656.656,0,0,0,.423-.823,20.334,20.334,0,0,1,.086-10.3.675.675,0,0,0-.06-.536A.6.6,0,0,0,646.8,555.1Z" transform="translate(-645.148 -553.72)" fill="#3b3938"/>
            <path id="パス_56" data-name="パス 56" d="M664.213,563.1a.732.732,0,0,0-.786.61c-.166.754-.516,1.167-.985,1.167a2.247,2.247,0,0,1-1.6-1.211,7.31,7.31,0,0,1-.3-6.8.7.7,0,0,0-.324-.9.689.689,0,0,0-.883.337,8.813,8.813,0,0,0,.448,8.128,3.39,3.39,0,0,0,2.628,1.763c1.23,0,2.005-.757,2.367-2.311a.613.613,0,0,0-.09-.482A.713.713,0,0,0,664.213,563.1Z" transform="translate(-642.857 -553.576)" fill="#3b3938"/>
            <path id="パス_57" data-name="パス 57" d="M666.422,557.007a.72.72,0,1,0-.321,1.4,3.382,3.382,0,0,1,2.6,3.526.785.785,0,0,0,.658.794.63.63,0,0,0,.105.008.678.678,0,0,0,.688-.6A4.951,4.951,0,0,0,666.422,557.007Z" transform="translate(-641.667 -553.393)" fill="#3b3938"/>
            <path id="パス_58" data-name="パス 58" d="M682.178,557.124a.446.446,0,0,0,.416.292.467.467,0,0,0,.176-.036.484.484,0,0,0,.253-.619,5.753,5.753,0,0,0-1.44-2.093.471.471,0,0,0-.653.049.454.454,0,0,0,.049.633A4.156,4.156,0,0,1,682.178,557.124Z" transform="translate(-639.057 -553.807)" fill="#3b3938"/>
            <path id="パス_59" data-name="パス 59" d="M682.77,554.1a.448.448,0,0,0-.625.025.435.435,0,0,0-.1.313.391.391,0,0,0,.128.266,5.312,5.312,0,0,1,1.25,1.872.4.4,0,0,0,.391.286.4.4,0,0,0,.163-.035.434.434,0,0,0,.255-.238.472.472,0,0,0,0-.37A5.655,5.655,0,0,0,682.77,554.1Z" transform="translate(-638.849 -553.906)" fill="#3b3938"/>
            <path id="パス_60" data-name="パス 60" d="M680.922,556.939a.767.767,0,0,0-1.083-.069.646.646,0,0,0-.236.431.754.754,0,0,0,.172.561,14.227,14.227,0,0,1,3.231,5.753.7.7,0,0,0,.67.534.692.692,0,0,0,.211-.035.8.8,0,0,0,.466-.418.678.678,0,0,0,.023-.527A21.641,21.641,0,0,0,680.922,556.939Z" transform="translate(-639.266 -553.445)" fill="#3b3938"/>
            <path id="パス_61" data-name="パス 61" d="M676.673,557.4c.215-1.052.362-1.96.454-2.772a.594.594,0,0,0-.129-.457.65.65,0,0,0-.451-.248l-.042,0a.662.662,0,0,0-.671.611c-.1.967-.258,1.993-.486,3.134a8.8,8.8,0,0,1-1.652.169c-.273,0-.563-.016-.892-.044l-.046,0a.694.694,0,0,0-.7.592.656.656,0,0,0,.148.485.59.59,0,0,0,.413.217,8.692,8.692,0,0,0,2.414-.089,26.092,26.092,0,0,1-3.323,7.768.685.685,0,0,0,.171.917.655.655,0,0,0,.383.124.606.606,0,0,0,.514-.275,30.053,30.053,0,0,0,3.606-8.809c1.255-.256,2.105-.166,2.493.259a1.358,1.358,0,0,1,.241,1.088c-.482,4.478-.951,5.842-2,5.842a3.268,3.268,0,0,1-1.438-.492.679.679,0,0,0-.318-.078.646.646,0,0,0-.588.355.7.7,0,0,0-.047.535.646.646,0,0,0,.323.389c2.346,1.18,3.9.555,4.553-1.789a26.75,26.75,0,0,0,.805-4.634,2.683,2.683,0,0,0-.554-2.122C679.252,557.4,678.176,557.176,676.673,557.4Z" transform="translate(-640.631 -553.917)" fill="#3b3938"/>
            <path id="パス_62" data-name="パス 62" d="M692.1,558.557a.617.617,0,0,0,.638.542h.049a8.713,8.713,0,0,1,4.495.562.7.7,0,0,0,.3.069.626.626,0,0,0,.571-.375.694.694,0,0,0-.337-.914,10.362,10.362,0,0,0-3.861-.683,12.332,12.332,0,0,0-1.278.068A.662.662,0,0,0,692.1,558.557Z" transform="translate(-637.132 -553.261)" fill="#3b3938"/>
            <path id="パス_63" data-name="パス 63" d="M693.849,557.336a.622.622,0,0,0-.1-.5.733.733,0,0,0-.951-.213,7.619,7.619,0,0,1-1.256.557c.117-.867.185-1.619.219-2.354a.684.684,0,0,0-.657-.7.7.7,0,0,0-.707.669c-.049.856-.137,1.75-.282,2.729a16.5,16.5,0,0,1-3.136.125.653.653,0,0,0-.672.629.674.674,0,0,0,.636.7,21.454,21.454,0,0,0,2.92-.138,24.558,24.558,0,0,1-2.989,7.521.7.7,0,0,0,.233.938.69.69,0,0,0,.362.1.7.7,0,0,0,.582-.316,27.165,27.165,0,0,0,3.262-8.493,8.1,8.1,0,0,0,2.238-.86A.589.589,0,0,0,693.849,557.336Z" transform="translate(-638.12 -553.882)" fill="#3b3938"/>
            <path id="パス_64" data-name="パス 64" d="M698.818,564.555a.65.65,0,0,0-.787-.447,8.655,8.655,0,0,1-2.2.3,7.076,7.076,0,0,1-3.927-1.167.675.675,0,0,0-.921.146.7.7,0,0,0-.128.54.6.6,0,0,0,.274.393,8.319,8.319,0,0,0,4.716,1.462,9.108,9.108,0,0,0,2.475-.354A.743.743,0,0,0,698.818,564.555Z" transform="translate(-637.346 -552.346)" fill="#3b3938"/>
          </g>
          <g id="グループ_38" data-name="グループ 38" transform="translate(67.985 0.639)">
            <path id="パス_65" data-name="パス 65" d="M712.008,565.936l-3.345-4.163a3.283,3.283,0,0,0,2.549-3.335c0-2.09-1.644-3.227-4.143-3.227h-2.634c-.8,0-1.216.452-1.216,1v10.23c0,.356.26.59.8.59s.8-.234.8-.59v-9.92h2.044c1.647,0,2.638.7,2.638,2.09a2.153,2.153,0,0,1-1.825,2.194c-.363.087-.57.2-.656.405a1.332,1.332,0,0,0,.266,1.254c.357.531,3.15,4.022,3.15,4.022.348.452.539.546.971.546.5,0,.817-.234.817-.575A.886.886,0,0,0,712.008,565.936Z" transform="translate(-703.218 -554.335)" fill="#3b3938" fill-rule="evenodd"/>
            <path id="パス_66" data-name="パス 66" d="M715.223,557.754c-.522,0-.8.28-.8.624V566c0,.342.274.59.8.59s.8-.248.8-.59v-7.626C716.023,558.034,715.744,557.754,715.223,557.754Z" transform="translate(-701.304 -553.901)" fill="#3b3938" fill-rule="evenodd"/>
            <path id="パス_67" data-name="パス 67" d="M715.258,554.519a1.036,1.036,0,1,0,1.16,1.028A1.1,1.1,0,0,0,715.258,554.519Z" transform="translate(-701.355 -554.453)" fill="#3b3938" fill-rule="evenodd"/>
            <path id="パス_68" data-name="パス 68" d="M724.807,558.284a3.743,3.743,0,0,0-2.88,1.2v-4.395c0-.343-.274-.625-.8-.625s-.779.282-.779.563v11.053c0,.671.24.843.848.937a19.654,19.654,0,0,0,2.34.141c2.722,0,4.979-1.543,4.979-4.833C728.519,559.7,727.04,558.284,724.807,558.284Zm-1.352,7.733h-1.528v-4.523a2.178,2.178,0,0,1,2.344-2.011c1.074,0,2.584.409,2.584,3.12A3.137,3.137,0,0,1,723.454,566.017Z" transform="translate(-700.293 -554.463)" fill="#3b3938" fill-rule="evenodd"/>
            <path id="パス_69" data-name="パス 69" d="M734.53,558.284a3.729,3.729,0,0,0-2.879,1.2v-4.395c0-.343-.277-.625-.8-.625s-.78.282-.78.563v11.053c0,.671.244.843.849.937a19.662,19.662,0,0,0,2.339.141c2.723,0,4.978-1.543,4.978-4.833C738.238,559.7,736.765,558.284,734.53,558.284Zm-1.353,7.733h-1.525v-4.523a2.173,2.173,0,0,1,2.337-2.011c1.077,0,2.584.409,2.584,3.12A3.134,3.134,0,0,1,733.177,566.017Z" transform="translate(-698.633 -554.463)" fill="#3b3938" fill-rule="evenodd"/>
            <path id="パス_70" data-name="パス 70" d="M743.88,557.74c-2.686,0-4.419,1.576-4.419,4.583s1.734,4.32,4.419,4.32,4.424-1.558,4.424-4.583C748.3,559.05,746.569,557.74,743.88,557.74Zm0,7.735c-1.54,0-2.788-.827-2.788-3.29s1.248-3.276,2.788-3.276,2.795.809,2.795,3.276S745.425,565.475,743.88,565.475Z" transform="translate(-697.03 -553.904)" fill="#3b3938" fill-rule="evenodd"/>
            <path id="パス_71" data-name="パス 71" d="M754.368,557.754a3.429,3.429,0,0,0-3.036,1.482v-.8c0-.342-.261-.609-.747-.609-.5,0-.743.267-.743.609v7.515c0,.357.258.639.8.639.52,0,.8-.282.8-.639v-4.8a2.259,2.259,0,0,1,2.5-2.231,1.905,1.905,0,0,1,2.047,2.06v5c0,.361.259.609.8.609s.816-.248.816-.609V560.8A2.927,2.927,0,0,0,754.368,557.754Z" transform="translate(-695.257 -553.901)" fill="#3b3938" fill-rule="evenodd"/>
            <path id="パス_72" data-name="パス 72" d="M766.88,557.754a3.435,3.435,0,0,0-3.037,1.482v-.8c0-.342-.256-.609-.746-.609s-.745.267-.745.609v7.515c0,.357.26.639.8.639s.8-.282.8-.639v-4.8a2.254,2.254,0,0,1,2.494-2.231,1.9,1.9,0,0,1,2.05,2.06v5c0,.361.259.609.8.609s.815-.248.815-.609V560.8A2.925,2.925,0,0,0,766.88,557.754Z" transform="translate(-693.121 -553.901)" fill="#3b3938" fill-rule="evenodd"/>
            <path id="パス_73" data-name="パス 73" d="M775.848,557.768c-2.569,0-4.286,1.761-4.286,4.691,0,2.574,1.44,4.166,4.63,4.166a7.743,7.743,0,0,0,2.412-.344.688.688,0,0,0,.537-.672.46.46,0,0,0-.487-.48,1.773,1.773,0,0,0-.469.092,5.882,5.882,0,0,1-1.646.2c-1.754,0-3.259-.656-3.348-2.853h5.292c.8,0,1.126-.233,1.126-.873v-.372C779.608,559.279,778.516,557.768,775.848,557.768Zm-2.621,3.648a2.43,2.43,0,0,1,2.464-2.482c1.386,0,2.374.564,2.407,2.482Z" transform="translate(-691.549 -553.899)" fill="#3b3938" fill-rule="evenodd"/>
            <path id="パス_74" data-name="パス 74" d="M785.848,565.67c-.259,0-.693.141-1.057.141-.866,0-1.075-.453-1.075-1.154v-5.314h2.01a.525.525,0,0,0,.539-.578.516.516,0,0,0-.539-.546h-2.01v-2.013c0-.341-.261-.623-.763-.623s-.762.282-.762.623v2.013h-1.112a.542.542,0,0,0-.569.546.549.549,0,0,0,.569.578h1.112v5.611c0,1.437.865,2.058,2.339,2.058a6.815,6.815,0,0,0,1.318-.157c.364-.092.589-.3.589-.638A.515.515,0,0,0,785.848,565.67Z" transform="translate(-690.021 -554.272)" fill="#3b3938" fill-rule="evenodd"/>
          </g>
        </g>
      </g>
    </g>
  </g>
</svg>
